<svg xmlns="http://www.w3.org/2000/svg" xmlns:xlink="http://www.w3.org/1999/xlink" width="500" zoomAndPan="magnify" viewBox="0 0 375 374.999991" height="500" preserveAspectRatio="xMidYMid meet" version="1.0"><defs><clipPath id="f456c1a6ea"><path d="M 216.855469 121 L 291.105469 121 L 291.105469 254.710938 L 216.855469 254.710938 Z M 216.855469 121 " clip-rule="nonzero"/></clipPath><clipPath id="12f5d7b0c6"><path d="M 1 22 L 75.105469 22 L 75.105469 133.640625 L 1 133.640625 Z M 1 22 " clip-rule="nonzero"/></clipPath><clipPath id="4cc349eefb"><path d="M 20 0.679688 L 60 0.679688 L 60 41 L 20 41 Z M 20 0.679688 " clip-rule="nonzero"/></clipPath><clipPath id="bc1db6111e"><rect x="0" width="76" y="0" height="134"/></clipPath><clipPath id="f6699fa100"><path d="M 83.789062 132.5 L 209 132.5 L 209 214 L 83.789062 214 Z M 83.789062 132.5 " clip-rule="nonzero"/></clipPath><clipPath id="eeabfdff60"><path d="M 83.789062 180 L 233.789062 180 L 233.789062 242.75 L 83.789062 242.75 Z M 83.789062 180 " clip-rule="nonzero"/></clipPath></defs><rect x="-37.5" width="450" fill="#ffffff" y="-37.499999" height="449.999989" fill-opacity="1"/><rect x="-37.5" width="450" fill="#000000" y="-37.499999" height="449.999989" fill-opacity="1"/><g clip-path="url(#f456c1a6ea)"><g transform="matrix(1, 0, 0, 1, 216, 121)"><g clip-path="url(#bc1db6111e)"><g clip-path="url(#12f5d7b0c6)"><path fill="#ffffff" d="M 9.226562 22.027344 C 3.820312 31.253906 0.871094 42.433594 1.167969 54.847656 C 2.070312 92.667969 32.746094 127.65625 69.671875 132.976562 C 71.535156 133.246094 73.375 133.429688 75.199219 133.539062 C 43.859375 126.25 26.675781 96.257812 36.511719 64.140625 C 37.472656 61.011719 38.65625 57.972656 40.039062 55.039062 C 38.976562 54.988281 37.914062 54.890625 36.839844 54.738281 C 20.5 52.382812 8.796875 38.140625 9.226562 22.027344 Z M 9.226562 22.027344 " fill-opacity="1" fill-rule="evenodd"/></g><g clip-path="url(#4cc349eefb)"><path fill="#38b6ff" d="M 43.007812 1.015625 C 32.210938 -0.539062 22.199219 6.953125 20.644531 17.746094 C 19.085938 28.542969 26.578125 38.554688 37.371094 40.109375 C 48.167969 41.667969 58.179688 34.175781 59.734375 23.382812 C 61.292969 12.585938 53.800781 2.574219 43.007812 1.015625 Z M 43.007812 1.015625 " fill-opacity="1" fill-rule="evenodd"/></g></g></g></g><g clip-path="url(#f6699fa100)"><path fill="#38b6ff" d="M 83.789062 132.503906 C 83.789062 132.503906 89.527344 155.59375 129.265625 156.011719 L 159.488281 156.011719 C 159.488281 156.011719 175.019531 155.3125 176 165.386719 C 176.980469 175.460938 167.183594 177.5625 159.210938 177.84375 C 151.234375 178.121094 128.144531 177.84375 128.144531 177.84375 C 128.144531 177.84375 178.9375 182.320312 208.230469 213.105469 L 192.558594 191.460938 C 192.558594 191.460938 206.550781 184.1875 205.429688 164.96875 C 204.3125 145.753906 184.414062 132.691406 160.964844 132.507812 L 83.789062 132.507812 Z M 83.789062 132.503906 " fill-opacity="1" fill-rule="nonzero"/></g><g clip-path="url(#eeabfdff60)"><path fill="#ffffff" d="M 83.789062 181.574219 C 83.789062 181.574219 157.109375 186.796875 195.167969 242.488281 L 233.789062 242.488281 C 233.789062 242.488281 180.335938 170.003906 83.789062 181.574219 Z M 83.789062 181.574219 " fill-opacity="1" fill-rule="nonzero"/></g></svg>